<?xml version="1.0" encoding="UTF-8"?>
<svg id="Layer_1" xmlns="http://www.w3.org/2000/svg" version="1.1" viewBox="0 0 167 50">
  <!-- Generator: Adobe Illustrator 29.1.0, SVG Export Plug-In . SVG Version: 2.1.0 Build 142)  -->
  <defs>
    <style>
      .st0 {
        fill: #fff;
      }
    </style>
  </defs>
  <g>
    <path class="st0" d="M50.6,15.7l.2,2.1c1.3-1.6,3.1-2.4,5.4-2.4s4.1,1,5,2.9c1.3-1.9,3.2-2.9,5.6-2.9s3.5.6,4.5,1.8c1,1.2,1.5,3,1.5,5.4v12h-5v-12c0-1.1-.2-1.8-.6-2.3-.4-.5-1.2-.7-2.2-.7-1.5,0-2.5.7-3.1,2.2v12.9s-5,0-5,0v-11.9c0-1.1-.2-1.9-.6-2.4-.4-.5-1.2-.7-2.2-.7s-2.5.6-3.1,1.8v13.3h-5V15.7h4.7Z"/>
    <path class="st0" d="M87.6,34.5c-.2-.5-.4-1-.5-1.7-1.2,1.4-2.8,2-4.7,2s-3.4-.5-4.6-1.6c-1.2-1.1-1.8-2.4-1.8-4s.7-3.5,2.2-4.6c1.5-1.1,3.6-1.6,6.4-1.6h2.3v-1.1c0-.9-.2-1.6-.7-2.1-.4-.5-1.1-.8-2.1-.8s-1.5.2-2,.6c-.5.4-.7,1-.7,1.7h-5c0-1.1.3-2.1,1-3,.7-.9,1.6-1.7,2.8-2.2,1.2-.5,2.6-.8,4.1-.8,2.3,0,4.1.6,5.5,1.7s2,2.8,2,4.9v8.1c0,1.8.3,3.1.7,4v.3h-5.1ZM83.4,31c.7,0,1.4-.2,2-.5.6-.3,1.1-.8,1.4-1.3v-3.2h-1.9c-2.5,0-3.8.9-4,2.6v.3c0,.6.2,1.1.6,1.5.4.4,1,.6,1.8.6Z"/>
    <path class="st0" d="M105.9,29.3c0-.6-.3-1.1-.9-1.4-.6-.4-1.6-.7-2.9-.9-4.5-.9-6.7-2.8-6.7-5.7s.7-3.1,2.1-4.2c1.4-1.1,3.2-1.7,5.4-1.7s4.3.6,5.7,1.7c1.4,1.1,2.1,2.6,2.1,4.4h-5c0-.7-.2-1.3-.7-1.8-.5-.5-1.2-.7-2.2-.7s-1.5.2-2,.6c-.5.4-.7.9-.7,1.5s.3,1,.8,1.3c.5.3,1.4.6,2.7.9,1.2.2,2.3.5,3.2.8,2.6,1,4,2.7,4,5s-.7,3.1-2.2,4.2c-1.5,1.1-3.4,1.6-5.7,1.6s-3-.3-4.2-.8c-1.2-.6-2.2-1.3-2.9-2.3-.7-1-1-2-1-3.2h4.8c0,.9.4,1.6,1,2,.6.5,1.4.7,2.5.7s1.7-.2,2.2-.5c.5-.4.7-.8.7-1.4Z"/>
    <path class="st0" d="M130.3,27.7l2.5-11.9h4.8l-4.8,18.8h-4.2l-3.6-11.8-3.6,11.8h-4.2l-4.8-18.8h4.8l2.4,11.9,3.4-11.9h3.6l3.4,11.9Z"/>
    <path class="st0" d="M140.1,10.9c0-.8.3-1.4.8-1.9.5-.5,1.2-.7,2.1-.7s1.5.2,2,.7c.5.5.8,1.1.8,1.9s-.3,1.4-.8,1.9c-.5.5-1.2.7-2,.7s-1.5-.2-2-.7c-.5-.5-.8-1.1-.8-1.9ZM145.4,34.5h-5V15.7h5v18.8Z"/>
    <path class="st0" d="M154.1,15.7l.2,2.2c1.3-1.7,3.1-2.5,5.4-2.5s3.5.6,4.4,1.8c1,1.2,1.5,2.9,1.5,5.2v12.1h-5v-12c0-1.1-.2-1.8-.7-2.3s-1.2-.7-2.3-.7-2.5.6-3.2,1.8v13.2h-5V15.7h4.7Z"/>
  </g>
  <g>
    <polygon class="st0" points="28.4 27.4 27.4 25.6 25.7 22.6 24.6 20.8 23.6 19.1 23.3 19.7 19.9 25.6 19.9 25.6 18.8 27.4 18.8 27.4 18.8 27.4 17.8 25.6 17.8 25.6 17.8 25.6 16.1 22.6 15 20.8 14 19.1 13.7 19.7 13 20.8 13 20.8 13 20.8 14 22.6 15.1 24.4 16.8 27.4 17.8 29.2 18.8 30.9 19.2 30.3 22.6 24.4 22.6 24.4 23.6 22.6 23.6 22.6 23.6 22.6 24.7 24.4 24.7 24.4 24.7 24.4 26.4 27.4 27.4 29.2 28.4 30.9 28.8 30.3 29.5 29.2 29.5 29.2 29.5 29.2 28.4 27.4"/>
    <polygon class="st0" points="12 22.6 10.8 24.7 10.3 25.6 13.7 25.6 13 24.4 12 22.6"/>
    <polygon class="st0" points="29.5 25.6 30.5 27.4 31.7 25.3 32.2 24.4 28.8 24.4 29.5 25.6"/>
    <path class="st0" d="M21.2,5.2C10.3,5.2,1.4,14.1,1.4,25s8.9,19.8,19.8,19.8,19.8-8.9,19.8-19.8S32.2,5.2,21.2,5.2ZM35,23.2l-.7,1.2-1.1,1.9-1.6,2.8h0s-1,1.8-1,1.8h0s-.7,1.2-.7,1.2l-.3.6-1,1.8-1-1.8-1-1.7-2.8-4.8h0s-3.8,6.5-3.8,6.5l-1,1.8-1-1.8-1-1.7h0s-1-1.8-1-1.8l-1.1-1.8h-7.5l.3-.6h0s.7-1.2.7-1.2l1.1-1.9,1.6-2.8h0s1-1.8,1-1.8h0s.7-1.2.7-1.2l.3-.6,1-1.8,1,1.8,1,1.7,2.8,4.8h0s3.8-6.5,3.8-6.5l1-1.8,1,1.8,1,1.7h0s1,1.8,1,1.8l1.1,1.8h7.5l-.3.6h0Z"/>
  </g>
</svg>